<mxfile host="app.diagrams.net" modified="2023-04-12T15:52:49.649Z" agent="Mozilla/5.0 (Windows NT 10.0; Win64; x64) AppleWebKit/537.36 (KHTML, like Gecko) Chrome/112.0.0.0 Safari/537.36" etag="ulASKVjoAa1RTZB5NAZx" version="21.1.7" type="github" pages="2">
  <diagram name="Innodb系统架构" id="nV_a9MdLe2YvZ55UTYjL">
    <mxGraphModel dx="1430" dy="775" grid="1" gridSize="10" guides="1" tooltips="1" connect="1" arrows="1" fold="1" page="1" pageScale="1" pageWidth="827" pageHeight="1169" math="0" shadow="0">
      <root>
        <mxCell id="0" />
        <mxCell id="1" parent="0" />
        <mxCell id="FlYKq1RUMrz01R4YsIxZ-1" value="" style="rounded=0;whiteSpace=wrap;html=1;" vertex="1" parent="1">
          <mxGeometry x="150" y="190" width="440" height="180" as="geometry" />
        </mxCell>
        <mxCell id="FlYKq1RUMrz01R4YsIxZ-2" value="后台线程" style="ellipse;whiteSpace=wrap;html=1;" vertex="1" parent="1">
          <mxGeometry x="170" y="210" width="120" height="60" as="geometry" />
        </mxCell>
        <mxCell id="FlYKq1RUMrz01R4YsIxZ-3" value="后台线程" style="ellipse;whiteSpace=wrap;html=1;" vertex="1" parent="1">
          <mxGeometry x="260" y="210" width="120" height="60" as="geometry" />
        </mxCell>
        <mxCell id="FlYKq1RUMrz01R4YsIxZ-4" value="后台线程" style="ellipse;whiteSpace=wrap;html=1;" vertex="1" parent="1">
          <mxGeometry x="354" y="210" width="120" height="60" as="geometry" />
        </mxCell>
        <mxCell id="FlYKq1RUMrz01R4YsIxZ-5" value="后台线程" style="ellipse;whiteSpace=wrap;html=1;" vertex="1" parent="1">
          <mxGeometry x="450" y="210" width="120" height="60" as="geometry" />
        </mxCell>
        <mxCell id="FlYKq1RUMrz01R4YsIxZ-6" value="InnoDB存储引擎内存池" style="rounded=0;whiteSpace=wrap;html=1;" vertex="1" parent="1">
          <mxGeometry x="200" y="290" width="350" height="60" as="geometry" />
        </mxCell>
        <mxCell id="FlYKq1RUMrz01R4YsIxZ-7" value="" style="shape=cylinder3;whiteSpace=wrap;html=1;boundedLbl=1;backgroundOutline=1;size=15;" vertex="1" parent="1">
          <mxGeometry x="290" y="420" width="60" height="80" as="geometry" />
        </mxCell>
        <mxCell id="FlYKq1RUMrz01R4YsIxZ-8" value="" style="shape=cylinder3;whiteSpace=wrap;html=1;boundedLbl=1;backgroundOutline=1;size=15;" vertex="1" parent="1">
          <mxGeometry x="340" y="420" width="60" height="80" as="geometry" />
        </mxCell>
        <mxCell id="FlYKq1RUMrz01R4YsIxZ-9" value="" style="shape=cylinder3;whiteSpace=wrap;html=1;boundedLbl=1;backgroundOutline=1;size=15;" vertex="1" parent="1">
          <mxGeometry x="250" y="460" width="60" height="80" as="geometry" />
        </mxCell>
        <mxCell id="FlYKq1RUMrz01R4YsIxZ-10" value="" style="shape=cylinder3;whiteSpace=wrap;html=1;boundedLbl=1;backgroundOutline=1;size=15;" vertex="1" parent="1">
          <mxGeometry x="390" y="420" width="60" height="80" as="geometry" />
        </mxCell>
        <mxCell id="FlYKq1RUMrz01R4YsIxZ-11" value="文件" style="shape=cylinder3;whiteSpace=wrap;html=1;boundedLbl=1;backgroundOutline=1;size=15;" vertex="1" parent="1">
          <mxGeometry x="310" y="460" width="60" height="80" as="geometry" />
        </mxCell>
        <mxCell id="FlYKq1RUMrz01R4YsIxZ-12" value="" style="shape=cylinder3;whiteSpace=wrap;html=1;boundedLbl=1;backgroundOutline=1;size=15;" vertex="1" parent="1">
          <mxGeometry x="430" y="460" width="60" height="80" as="geometry" />
        </mxCell>
        <mxCell id="FlYKq1RUMrz01R4YsIxZ-13" value="" style="endArrow=classic;startArrow=classic;html=1;rounded=0;exitX=0.5;exitY=0;exitDx=0;exitDy=0;exitPerimeter=0;entryX=0.5;entryY=1;entryDx=0;entryDy=0;" edge="1" parent="1" source="FlYKq1RUMrz01R4YsIxZ-8" target="FlYKq1RUMrz01R4YsIxZ-1">
          <mxGeometry width="50" height="50" relative="1" as="geometry">
            <mxPoint x="420" y="400" as="sourcePoint" />
            <mxPoint x="470" y="350" as="targetPoint" />
          </mxGeometry>
        </mxCell>
        <mxCell id="FlYKq1RUMrz01R4YsIxZ-14" value="文件" style="shape=cylinder3;whiteSpace=wrap;html=1;boundedLbl=1;backgroundOutline=1;size=15;" vertex="1" parent="1">
          <mxGeometry x="370" y="460" width="60" height="80" as="geometry" />
        </mxCell>
      </root>
    </mxGraphModel>
  </diagram>
  <diagram id="iXXcGRQjZ4IvcgW_eyL-" name="Innodb内存结构">
    <mxGraphModel dx="1430" dy="775" grid="1" gridSize="10" guides="1" tooltips="1" connect="1" arrows="1" fold="1" page="1" pageScale="1" pageWidth="827" pageHeight="1169" math="0" shadow="0">
      <root>
        <mxCell id="0" />
        <mxCell id="1" parent="0" />
        <mxCell id="qS4EXJ0C9BOPPP0oN1th-1" value="重做日志缓存&lt;br&gt;redo log_buffer" style="rounded=0;whiteSpace=wrap;html=1;" vertex="1" parent="1">
          <mxGeometry x="120" y="270" width="120" height="60" as="geometry" />
        </mxCell>
        <mxCell id="qS4EXJ0C9BOPPP0oN1th-2" value="额外内存池" style="rounded=0;whiteSpace=wrap;html=1;" vertex="1" parent="1">
          <mxGeometry x="120" y="370" width="120" height="60" as="geometry" />
        </mxCell>
        <mxCell id="qS4EXJ0C9BOPPP0oN1th-3" value="" style="rounded=0;whiteSpace=wrap;html=1;" vertex="1" parent="1">
          <mxGeometry x="270" y="250" width="450" height="210" as="geometry" />
        </mxCell>
        <mxCell id="qS4EXJ0C9BOPPP0oN1th-4" value="缓存池 Innodb_buffer_pull" style="text;html=1;strokeColor=none;fillColor=none;align=center;verticalAlign=middle;whiteSpace=wrap;rounded=0;" vertex="1" parent="1">
          <mxGeometry x="420" y="260" width="130" height="30" as="geometry" />
        </mxCell>
        <mxCell id="qS4EXJ0C9BOPPP0oN1th-5" value="数据页 data page" style="rounded=0;whiteSpace=wrap;html=1;" vertex="1" parent="1">
          <mxGeometry x="294" y="290" width="120" height="60" as="geometry" />
        </mxCell>
        <mxCell id="qS4EXJ0C9BOPPP0oN1th-6" value="索引页 index page" style="rounded=0;whiteSpace=wrap;html=1;" vertex="1" parent="1">
          <mxGeometry x="294" y="380" width="120" height="60" as="geometry" />
        </mxCell>
        <mxCell id="qS4EXJ0C9BOPPP0oN1th-7" value="插入缓存&lt;br&gt;insert buffer" style="rounded=0;whiteSpace=wrap;html=1;" vertex="1" parent="1">
          <mxGeometry x="450" y="310" width="110" height="40" as="geometry" />
        </mxCell>
        <mxCell id="qS4EXJ0C9BOPPP0oN1th-8" value="自适应哈希" style="rounded=0;whiteSpace=wrap;html=1;" vertex="1" parent="1">
          <mxGeometry x="450" y="370" width="110" height="40" as="geometry" />
        </mxCell>
        <mxCell id="qS4EXJ0C9BOPPP0oN1th-9" value="锁信息" style="rounded=0;whiteSpace=wrap;html=1;" vertex="1" parent="1">
          <mxGeometry x="600" y="280" width="80" height="60" as="geometry" />
        </mxCell>
        <mxCell id="qS4EXJ0C9BOPPP0oN1th-10" value="数据字典信息" style="rounded=0;whiteSpace=wrap;html=1;" vertex="1" parent="1">
          <mxGeometry x="600" y="380" width="80" height="60" as="geometry" />
        </mxCell>
      </root>
    </mxGraphModel>
  </diagram>
</mxfile>
